<?xml version="1.0" encoding="UTF-8" standalone="no"?>
<svg width="238px" height="211px" viewBox="0 0 238 211" version="1.1" xmlns="http://www.w3.org/2000/svg" xmlns:xlink="http://www.w3.org/1999/xlink" xmlns:sketch="http://www.bohemiancoding.com/sketch/ns">
    <title>LargeHandIcon</title>
    <description>Created with Sketch (http://www.bohemiancoding.com/sketch)</description>
    <defs>
        <linearGradient x1="50%" y1="0%" x2="50%" y2="100%" id="linearGradient-1" stop-opacity="0.5">
            <stop stop-color="#F9D548" offset="0%"></stop>
            <stop stop-color="#FFCD00" offset="100%"></stop>
        </linearGradient>
        <circle id="path-2" cx="124.5" cy="105.5" r="105.5"></circle>
    </defs>
    <g id="Page-1" stroke="none" stroke-width="1" fill="none" fill-rule="evenodd" sketch:type="MSPage">
        <g id="LargeHandIcon" sketch:type="MSArtboardGroup">
            <g id="HackFargoIcon" sketch:type="MSLayerGroup">
                <circle id="Oval-1" fill="#000000" sketch:type="MSShapeGroup" cx="124.5" cy="105.5" r="105.5"></circle>
                <g id="Oval-1">
                    <use fill="#F8E81C" sketch:type="MSShapeGroup" xlink:href="#path-2"></use>
                    <use fill="url(#linearGradient-1)" xlink:href="#path-2"></use>
                    <use fill="#000000" xlink:href="#path-2"></use>
                </g>
                <rect id="Rectangle-1" stroke="#FF3B30" stroke-width="6" fill="#FFFFFF" sketch:type="MSShapeGroup" x="2" y="41" width="234" height="60" rx="10"></rect>
                <path d="M122.269349,210.999612 C112.69021,210.973121 103.704288,209.588206 94.6566597,206.384917 C96.4310996,183.34341 100.103093,136.884429 100.103093,136.884429 L73.4899625,115.163209 C72.6314144,114.462475 72.1847829,113.034625 72.4917775,111.976103 L80.9885366,82.679169 C81.4494126,81.0900624 83.0606733,80.3339835 84.5731353,80.9842914 L94.8223366,85.3911041 C97.3636118,86.4837672 98.6475319,89.4709042 97.6896227,92.0642245 L93.3438892,103.829306 L109.035379,113.894418 L110.095851,111.996451 L97.2262448,100.435752 L158.470904,96.0277314 L139.380487,136.884429 C139.380487,136.884429 147.260411,184.019773 151.100115,207.255895 C141.974005,209.700931 131.825129,211.026038 122.269349,210.999612 Z M82.9717974,40.9570497 C79.2238805,41.8915103 76.9417511,45.6818229 77.878032,49.4370405 L81.5078654,63.9955071 C82.576749,68.282565 86.9108492,70.8933426 91.2081807,69.8218976 L94.1139388,69.0974107 C98.4023914,68.0281794 101.010635,63.6790992 99.9434842,59.398991 L95.8318948,42.9083068 C95.1632533,40.2265322 92.4522008,38.5933196 89.7774705,39.2602048 L82.9717974,40.9570497 Z M103.477113,32.5116203 C100.740643,32.8476165 98.7941666,35.3342019 99.131466,38.0812849 L101.691756,58.9331714 C102.229735,63.3146634 106.21297,66.4310333 110.608846,65.8912876 L113.581238,65.5263237 C117.968032,64.9876932 121.088629,61.0033555 120.550133,56.6176538 L117.989843,35.7657674 C117.653408,33.0257228 115.161923,31.076906 112.425857,31.4128527 L103.477113,32.5116203 Z M129.188868,30.7269508 C126.438564,30.5346308 124.053386,32.6041254 123.86032,35.3650965 L122.394843,56.3224014 C122.08691,60.7260444 125.402331,64.5451949 129.82043,64.8541385 L132.807849,65.0630392 C137.216821,65.3713445 141.040331,62.0556483 141.34856,57.6477744 L142.814037,36.6904695 C143.006609,33.9365724 140.932751,31.5481631 138.182853,31.3558715 L129.188868,30.7269508 Z M154.262392,35.0450618 C151.578379,34.3758621 148.862981,35.9974837 148.191873,38.689151 L144.080284,55.1798352 C143.0114,59.4668932 145.622914,63.809407 149.909406,64.8781493 L150.87542,65.1190036 C155.163638,66.1881766 159.50816,63.5726156 160.575311,59.2925075 L164.205145,44.7340409 C165.139853,40.9851319 162.852918,37.1869205 159.105105,36.2524858 L154.262392,35.0450618 Z" id="Path-17" fill="#FF3B30" sketch:type="MSShapeGroup"></path>
                <path d="M108,158 L108,191" id="Line" stroke="#000000" stroke-width="4" stroke-linecap="round" sketch:type="MSShapeGroup"></path>
            </g>
        </g>
    </g>
</svg>