<?xml version="1.0" encoding="UTF-8" standalone="no"?>
<svg width="103px" height="92px" viewBox="0 0 103 92" version="1.1" xmlns="http://www.w3.org/2000/svg" xmlns:xlink="http://www.w3.org/1999/xlink" xmlns:sketch="http://www.bohemiancoding.com/sketch/ns">
    <title>HandIcon@2x</title>
    <description>Created with Sketch (http://www.bohemiancoding.com/sketch)</description>
    <defs></defs>
    <g id="Page-1" stroke="none" stroke-width="1" fill="none" fill-rule="evenodd" sketch:type="MSPage">
        <g id="HandIcon" sketch:type="MSArtboardGroup" transform="translate(-5.000000, -11.000000)">
            <g id="HackFargoIcon" sketch:type="MSLayerGroup" transform="translate(5.000000, 11.000000)">
                <circle id="Oval-1" fill="#000000" sketch:type="MSShapeGroup" cx="53.5" cy="45.5" r="45.5"></circle>
                <circle id="Oval-1" fill="#D1EEFC" sketch:type="MSShapeGroup" cx="53.5" cy="45.5" r="45.5"></circle>
                <rect id="Rectangle-1" stroke="#007AFF" stroke-width="2" fill="#FFFFFF" sketch:type="MSShapeGroup" x="1" y="18" width="101" height="26" rx="2"></rect>
                <path d="M52.6469928,91.124106 C48.496819,91.1127062 44.6036567,90.5167455 40.6837601,89.138297 C41.4525384,79.2230082 43.0434343,59.2306439 43.0434343,59.2306439 L32.3977555,50.6005357 C31.5372958,49.9029888 31.0885878,48.4853376 31.3997897,47.419562 L34.282339,37.5476733 C34.7469392,35.9565535 36.3657157,35.1971664 37.8765613,35.8423885 L38.1592919,35.9631315 C40.6941708,37.0456776 41.9659124,40.0292146 41.0067852,42.6082819 L40.1150006,45.0062667 L46.9133587,49.3375154 L47.3728096,48.5207763 L41.5373823,44.7339587 L68.1273433,42.6906252 L60.0604155,59.2306439 C60.0604155,59.2306439 63.4744027,79.5140629 65.1379593,89.5130984 C61.1840604,90.5652536 56.7870468,91.1354777 52.6469928,91.124106 Z M34.706398,18.4526924 C33.6356563,18.7196583 32.9838163,19.8030775 33.2521603,20.8793465 L35.1871615,28.6402125 C35.5878286,30.2472003 37.2118789,31.2259831 38.8251366,30.8237527 L40.762496,30.3407148 C42.3710271,29.9396629 43.3502761,28.3121529 42.9495273,26.7048373 L41.0145261,18.9439713 C40.7469378,17.8707332 39.6696472,17.2152154 38.5912654,17.4840862 L34.706398,18.4526924 Z M44.4158598,13.9828726 C43.3205644,14.117358 42.5425013,15.1210308 42.6753215,16.2027645 L43.8657147,25.8977395 C44.0680144,27.5453379 45.5610499,28.7177948 47.2113022,28.5151693 L49.1930884,28.2718365 C50.8385056,28.0698047 52.0095252,26.5796809 51.806084,24.9227847 L50.6156907,15.2278098 C50.481668,14.1362827 49.4929242,13.3594875 48.3898134,13.4949325 L44.4158598,13.9828726 Z M55.7414065,13.3266107 C54.6405738,13.249633 53.6852961,14.0864041 53.6092715,15.1736066 L52.9279054,24.9175953 C52.8121117,26.5735232 54.0540006,28.0093234 55.7125958,28.1253037 L57.7044011,28.2645843 C59.3581369,28.3802247 60.7919706,27.1409199 60.9084178,25.4756471 L61.5897839,15.7316584 C61.6664968,14.634613 60.8441385,13.6834285 59.7354508,13.6059015 L55.7414065,13.3266107 Z M66.2517392,15.2207073 C65.1752479,14.9523079 64.0864117,15.6017277 63.8180677,16.6779967 L61.8830665,24.4388627 C61.4823994,26.0458505 62.461953,27.6737846 64.0664553,28.073832 L65.4514547,28.4191511 C67.0579741,28.8197014 68.6850385,27.8420182 69.0857873,26.2347027 L71.0207885,18.4738367 C71.2883768,17.4005985 70.6364836,16.3139469 69.55614,16.044587 L66.2517392,15.2207073 Z" id="Path-17" fill="#007AFF" sketch:type="MSShapeGroup"></path>
                <path d="M46.2567672,67.9885049 L46.2567673,82.3135743" id="Line" stroke="#D1EEFC" stroke-linecap="round" sketch:type="MSShapeGroup"></path>
            </g>
        </g>
    </g>
</svg>